<mxfile host="app.diagrams.net" modified="2024-04-22T01:22:32.725Z" agent="Mozilla/5.0 (Macintosh; Intel Mac OS X 10_15_7) AppleWebKit/537.36 (KHTML, like Gecko) Chrome/114.0.0.0 Safari/537.36" version="24.2.7" etag="d9qLCm2fuwwQxWq9fX9C" type="github">
  <diagram name="第 1 页" id="yJCuUx9bjBVdfQpdf9vq">
    <mxGraphModel>
      <root>
        <mxCell id="0" />
        <mxCell id="1" parent="0" />
      </root>
    </mxGraphModel>
  </diagram>
</mxfile>
